<svg width="632" height="54" viewBox="0 0 632 54" fill="none" xmlns="http://www.w3.org/2000/svg">
<path d="M628.402 16.416C628.402 16.8 627.322 17.76 625.162 19.296C622.09 21.36 620.146 22.752 619.33 23.472C618.514 24.144 616.882 25.68 614.434 28.08C612.706 29.76 611.674 30.6 611.338 30.6C610.09 30.6 609.466 30.192 609.466 29.376C609.466 28.32 612.178 25.632 617.602 21.312C622.738 17.232 626.002 15.192 627.394 15.192C628.066 15.192 628.402 15.6 628.402 16.416ZM631.426 45.072C631.426 45.936 629.074 47.208 624.37 48.888C620.578 50.232 617.746 50.904 615.874 50.904C613.762 50.904 612.082 50.544 610.834 49.824C610.402 49.632 609.562 48.96 608.314 47.808C605.29 49.344 603.106 50.28 601.762 50.616C599.698 51.192 596.794 51.48 593.05 51.48C591.802 51.48 590.698 51.072 589.738 50.256C588.826 49.44 588.37 48.432 588.37 47.232C588.37 46.128 590.29 43.896 594.13 40.536C597.874 37.32 600.418 35.568 601.762 35.28C602.386 35.136 602.698 35.592 602.698 36.648C602.698 37.08 600.994 38.76 597.586 41.688C594.178 44.568 592.474 46.416 592.474 47.232C592.474 48.096 593.362 48.528 595.138 48.528C599.89 48.528 604.69 46.896 609.538 43.632C610.498 43.008 612.466 41.496 615.442 39.096C617.506 37.464 618.802 36.648 619.33 36.648C620.05 36.648 620.41 37.152 620.41 38.16C620.41 39.6 619.762 40.896 618.466 42.048C617.986 42.48 616.81 43.296 614.938 44.496C613.642 45.312 612.994 45.984 612.994 46.512C612.994 47.856 614.122 48.528 616.378 48.528C617.434 48.528 619.714 48 623.218 46.944C623.986 46.704 625.402 46.176 627.466 45.36C629.098 44.688 630.106 44.352 630.49 44.352C631.114 44.352 631.426 44.592 631.426 45.072Z" fill="#943851"/>
<path d="M594.397 41.9759C594.397 42.7439 593.221 43.4159 590.869 43.9919C588.565 44.5199 586.141 44.7839 583.597 44.7839C581.917 44.7839 580.213 44.4239 578.485 43.7039C574.885 47.3039 572.437 49.5839 571.141 50.5439C568.309 52.7039 565.501 53.7839 562.717 53.7839C561.805 53.7839 561.013 53.3759 560.341 52.5599C559.669 51.7919 559.333 51.0719 559.333 50.3999C559.333 48.8159 560.077 46.8719 561.565 44.5679C563.053 42.2159 564.997 40.0079 567.397 37.9439C569.317 36.3119 571.669 34.9439 574.453 33.8399C576.661 32.9759 578.293 32.5439 579.349 32.5439C579.973 32.5439 580.669 32.9039 581.437 33.6239C582.205 34.3439 582.589 35.2079 582.589 36.2159C582.589 37.2239 581.989 38.9279 580.789 41.3279C581.461 41.6639 582.637 41.9999 584.317 42.3359C585.613 42.3359 587.341 42.1919 589.501 41.9039C591.661 41.5679 592.885 41.3999 593.173 41.3999C593.989 41.3999 594.397 41.5919 594.397 41.9759ZM574.741 42.9119C574.933 42.2399 574.933 41.4479 574.741 40.5359C574.501 39.3839 574.117 38.6399 573.589 38.3039C571.333 39.2639 569.461 40.4879 567.973 41.9759C564.565 45.4319 562.861 47.9999 562.861 49.6799C562.861 50.4479 563.125 50.8319 563.653 50.8319C565.909 50.8319 569.605 48.1919 574.741 42.9119Z" fill="#943851"/>
<path d="M618.381 3.02395C618.381 4.17595 617.349 5.30395 615.285 6.40795C613.461 7.36795 611.421 8.06395 609.165 8.49595C605.997 9.07195 602.493 9.62395 598.653 10.152C592.029 10.968 588.453 11.424 587.925 11.52C585.573 11.856 581.805 12.384 576.621 13.104C575.229 14.736 573.453 17.088 571.293 20.16C568.701 23.904 566.565 26.856 564.885 29.016C559.461 36.072 553.341 42.432 546.525 48.096C542.637 51.36 539.109 52.992 535.941 52.992C534.693 52.992 533.709 52.608 532.989 51.84C532.269 51.072 531.933 50.16 531.981 49.104C532.029 47.424 534.045 44.688 538.029 40.896C539.757 39.264 541.677 37.776 543.789 36.432C545.901 35.088 547.413 34.416 548.325 34.416C550.821 34.416 552.069 36 552.069 39.168C554.421 36.624 557.901 32.496 562.509 26.784C565.149 22.992 567.765 19.176 570.357 15.336C572.901 11.784 574.629 10.008 575.541 10.008C576.501 10.008 580.821 9.50395 588.501 8.49595C591.477 8.20795 595.725 7.63195 601.245 6.76795C600.861 6.62396 600.429 6.28796 599.949 5.75995C599.901 5.56795 600.021 5.30395 600.309 4.96795C600.597 4.63195 600.909 4.46395 601.245 4.46395C605.661 4.46395 608.301 4.36795 609.165 4.17595C610.269 3.93595 611.661 3.52795 613.341 2.95196C614.589 2.56795 615.477 2.37595 616.005 2.37595C617.973 2.37595 618.525 2.35195 617.661 2.30396C618.141 2.30396 618.381 2.54395 618.381 3.02395ZM549.045 41.616C549.045 40.176 548.589 39.36 547.677 39.168C546.525 38.928 544.341 40.08 541.125 42.624C537.909 45.168 536.301 46.992 536.301 48.096C536.301 49.152 536.613 49.68 537.237 49.68C539.301 49.68 543.237 46.992 549.045 41.616Z" fill="#943851"/>
<path d="M537.936 41.9759C537.936 42.7439 536.76 43.4159 534.408 43.9919C532.104 44.5199 529.68 44.7839 527.136 44.7839C525.456 44.7839 523.752 44.4239 522.024 43.7039C518.424 47.3039 515.976 49.5839 514.68 50.5439C511.848 52.7039 509.04 53.7839 506.256 53.7839C505.344 53.7839 504.552 53.3759 503.88 52.5599C503.208 51.7919 502.872 51.0719 502.872 50.3999C502.872 48.8159 503.616 46.8719 505.104 44.5679C506.592 42.2159 508.536 40.0079 510.936 37.9439C512.856 36.3119 515.208 34.9439 517.992 33.8399C520.2 32.9759 521.832 32.5439 522.888 32.5439C523.512 32.5439 524.208 32.9039 524.976 33.6239C525.744 34.3439 526.128 35.2079 526.128 36.2159C526.128 37.2239 525.528 38.9279 524.328 41.3279C525 41.6639 526.176 41.9999 527.856 42.3359C529.152 42.3359 530.88 42.1919 533.04 41.9039C535.2 41.5679 536.424 41.3999 536.712 41.3999C537.528 41.3999 537.936 41.5919 537.936 41.9759ZM518.28 42.9119C518.472 42.2399 518.472 41.4479 518.28 40.5359C518.04 39.3839 517.656 38.6399 517.128 38.3039C514.872 39.2639 513 40.4879 511.512 41.9759C508.104 45.4319 506.4 47.9999 506.4 49.6799C506.4 50.4479 506.664 50.8319 507.192 50.8319C509.448 50.8319 513.144 48.1919 518.28 42.9119Z" fill="#943851"/>
<path d="M507.668 45.144C507.668 45.528 506.852 46.176 505.22 47.088C503.636 48 501.98 48.744 500.252 49.32C494.444 51.288 489.884 52.272 486.572 52.272C485.42 52.272 484.436 51.984 483.62 51.408C482.804 50.784 482.396 49.968 482.396 48.96C482.396 48.432 483.116 47.352 484.556 45.72C485.804 44.424 487.028 43.104 488.228 41.76C485.06 42.24 481.364 43.488 477.14 45.504C470.564 48.624 466.988 50.184 466.412 50.184C465.308 50.184 464.756 49.584 464.756 48.384C464.756 47.712 465.716 46.512 467.636 44.784C469.604 43.056 470.588 41.904 470.588 41.328C470.588 40.8 470.372 40.536 469.94 40.536C468.356 40.536 463.268 42.48 454.676 46.368C454.196 46.56 451.94 47.712 447.908 49.824C445.22 51.216 443.516 51.912 442.796 51.912C441.884 51.912 441.428 51.336 441.428 50.184C441.428 49.176 444.188 46.536 449.708 42.264C455.228 37.992 458.732 35.856 460.22 35.856C460.94 35.856 461.3 36.168 461.3 36.792C461.3 37.128 460.292 38.088 458.276 39.672C455.924 41.496 454.508 42.72 454.028 43.344C454.076 43.344 456.14 42.672 460.22 41.328C460.988 41.088 463.436 40.176 467.564 38.592C470.3 37.584 472.052 37.08 472.82 37.08C474.068 37.08 475.052 37.416 475.772 38.088C476.54 38.76 476.852 39.576 476.708 40.536C476.516 41.976 476.156 43.08 475.628 43.848C477.596 42.936 480.812 41.616 485.276 39.888C489.884 38.4 492.956 37.656 494.492 37.656C495.5 37.656 496.004 38.208 496.004 39.312C496.004 39.744 495.212 40.464 493.628 41.472C491.564 42.768 490.196 43.776 489.524 44.496C487.22 46.944 486.068 48.432 486.068 48.96C486.068 49.584 486.788 49.896 488.228 49.896C490.388 49.896 493.868 49.152 498.668 47.664C499.868 47.28 501.548 46.632 503.708 45.72C505.58 44.904 506.588 44.496 506.732 44.496C507.356 44.496 507.668 44.712 507.668 45.144Z" fill="#943851"/>
<path d="M428.147 42.696C428.147 43.464 423.635 45.336 414.611 48.312C406.787 50.904 401.531 52.2 398.843 52.2C395.675 52.2 394.091 50.808 394.091 48.024C394.091 45.48 397.139 42.192 403.235 38.16C407.123 35.568 409.859 34.272 411.443 34.272C412.259 34.272 412.955 34.536 413.531 35.064C414.107 35.544 414.395 36.168 414.395 36.936C414.395 37.224 414.107 37.8 413.531 38.664C412.811 39.672 412.163 40.272 411.587 40.464C410.963 40.656 410.147 39.984 409.139 38.448C407.939 39.024 406.235 39.984 404.027 41.328C399.851 44.496 397.763 46.728 397.763 48.024C397.763 48.312 397.931 48.6 398.267 48.888C398.651 49.128 399.011 49.248 399.347 49.248C401.267 49.248 406.139 48 413.963 45.504C422.075 42.912 426.155 41.616 426.203 41.616C427.499 41.616 428.147 41.976 428.147 42.696Z" fill="#943851"/>
<path d="M377.668 45.0719C377.668 45.9359 375.316 47.2079 370.612 48.8879C366.82 50.2319 363.988 50.9039 362.116 50.9039C360.004 50.9039 358.324 50.5439 357.076 49.8239C356.644 49.6319 355.804 48.9599 354.556 47.8079C351.532 49.3439 349.348 50.2799 348.004 50.6159C345.94 51.1919 343.036 51.4799 339.292 51.4799C338.044 51.4799 336.94 51.0719 335.98 50.2559C335.068 49.4399 334.612 48.4319 334.612 47.2319C334.612 46.1279 336.532 43.8959 340.372 40.5359C344.116 37.3199 346.66 35.5679 348.004 35.2799C348.628 35.1359 348.94 35.5919 348.94 36.6479C348.94 37.0799 347.236 38.7599 343.828 41.6879C340.42 44.5679 338.716 46.4159 338.716 47.2319C338.716 48.0959 339.604 48.5279 341.38 48.5279C346.132 48.5279 350.932 46.8959 355.78 43.6319C356.74 43.0079 358.708 41.4959 361.684 39.0959C363.748 37.4639 365.044 36.6479 365.572 36.6479C366.292 36.6479 366.652 37.1519 366.652 38.1599C366.652 39.5999 366.004 40.8959 364.708 42.0479C364.228 42.4799 363.052 43.2959 361.18 44.4959C359.884 45.3119 359.236 45.9839 359.236 46.5119C359.236 47.8559 360.364 48.5279 362.62 48.5279C363.676 48.5279 365.956 47.9999 369.46 46.9439C370.228 46.7039 371.644 46.1759 373.708 45.3599C375.34 44.6879 376.348 44.3519 376.732 44.3519C377.356 44.3519 377.668 44.5919 377.668 45.0719Z" fill="#943851"/>
<path d="M339.683 46.08C339.731 47.088 337.427 48.48 332.771 50.256C328.115 52.032 324.659 52.92 322.403 52.92C321.107 52.92 319.931 52.296 318.875 51.048C317.819 49.752 317.339 48.432 317.435 47.088C317.531 45.12 318.059 43.08 319.019 40.968C316.715 43.176 312.779 45.6 307.211 48.24C301.931 50.736 298.715 51.936 297.563 51.84C295.307 51.696 294.179 50.544 294.179 48.384C294.179 46.752 294.539 45.312 295.259 44.064C296.171 42.576 297.323 41.976 298.715 42.264C299.627 42.456 299.891 42.984 299.507 43.848C299.219 44.424 298.859 45.36 298.427 46.656C298.283 47.424 298.739 47.832 299.795 47.88C301.043 47.928 306.563 45.12 316.355 39.456C318.323 38.256 320.291 37.056 322.259 35.856C324.659 34.464 326.555 33.696 327.947 33.552C328.139 33.552 328.307 33.672 328.451 33.912C328.595 34.152 328.643 34.368 328.595 34.56C327.635 35.52 326.075 37.248 323.915 39.744C322.043 42.192 321.059 44.448 320.963 46.512C320.915 47.328 321.107 48.072 321.539 48.744C321.971 49.56 322.595 49.992 323.411 50.04C324.179 50.088 326.843 49.32 331.403 47.736C336.011 46.104 338.507 45.312 338.891 45.36C339.419 45.408 339.683 45.648 339.683 46.08Z" fill="#943851"/>
<path d="M301.553 42.912C301.553 43.68 298.601 45.36 292.697 47.952C288.473 49.824 284.393 50.76 280.457 50.76C279.257 50.76 278.321 50.304 277.649 49.392C277.217 48.576 276.785 47.76 276.353 46.944C271.313 50.448 266.609 52.2 262.241 52.2C260.657 52.2 259.409 51.792 258.497 50.976C257.585 50.16 257.129 49.152 257.129 47.952C257.129 45.264 258.905 42.792 262.457 40.536C266.393 38.088 271.313 36.864 277.217 36.864C279.473 36.864 281.177 37.632 282.329 39.168C283.193 38.592 284.153 38.304 285.209 38.304C285.977 38.304 286.361 39 286.361 40.392C286.361 40.728 285.497 41.568 283.769 42.912C282.041 44.208 281.177 45.264 281.177 46.08C281.177 47.328 281.561 47.952 282.329 47.952C285.593 47.952 288.737 47.232 291.761 45.792C296.897 43.344 299.801 42.12 300.473 42.12C301.193 42.12 301.553 42.384 301.553 42.912ZM277.217 41.112C277.313 40.632 276.785 40.392 275.633 40.392C273.329 40.392 270.473 41.136 267.065 42.624C263.177 44.352 261.233 46.128 261.233 47.952C261.233 48.672 261.569 49.08 262.241 49.176C263.969 49.464 266.681 48.792 270.377 47.16C274.457 45.336 276.737 43.32 277.217 41.112Z" fill="#943851"/>
<path d="M261.808 43.2C261.808 44.016 259.024 45.528 253.456 47.736C248.752 49.608 244.48 50.544 240.64 50.544C239.824 50.544 239.416 50.136 239.416 49.32C239.416 48.696 239.8 47.808 240.568 46.656C241.432 45.312 242.296 43.992 243.16 42.696C240.232 43.368 235.408 44.952 228.688 47.448C227.584 47.88 225.424 48.912 222.208 50.544C219.808 51.792 218.128 52.416 217.168 52.416C216.208 52.416 215.728 51.96 215.728 51.048C215.728 50.328 216.568 49.224 218.248 47.736C219.88 46.44 221.512 45.12 223.144 43.776C226.456 40.992 228.328 39.432 228.76 39.096C230.776 37.56 232.288 36.792 233.296 36.792C234.352 36.792 234.88 37.344 234.88 38.448C234.88 38.784 234.136 39.576 232.648 40.824C230.872 42.312 229.672 43.536 229.048 44.496C230.392 44.16 234.136 42.912 240.28 40.752C245.608 38.832 248.728 37.872 249.64 37.872C250.84 37.872 251.44 38.256 251.44 39.024C251.44 39.504 250.264 40.872 247.912 43.128C245.56 45.384 244.384 46.608 244.384 46.8C244.384 47.232 244.792 47.448 245.608 47.448C246.424 47.448 249.04 46.704 253.456 45.216C254.224 44.928 255.664 44.328 257.776 43.416C259.312 42.696 260.344 42.336 260.872 42.336C261.496 42.336 261.808 42.624 261.808 43.2Z" fill="#943851"/>
<path d="M247.906 3.6C247.906 4.56 246.322 6.552 243.154 9.576C239.554 12.984 235.306 16.32 230.41 19.584C227.242 21.696 222.418 24.192 215.938 27.072C206.818 31.104 201.85 33.408 201.034 33.984C200.266 34.56 199.066 35.424 197.434 36.576C195.418 38.16 193.69 39.72 192.25 41.256C188.026 45.816 185.914 48.624 185.914 49.68C185.914 50.4 186.25 50.76 186.922 50.76C188.122 50.76 190.018 50.016 192.61 48.528C194.866 47.136 197.146 45.744 199.45 44.352C200.122 43.536 201.322 42.432 203.05 41.04C205.786 38.784 207.778 37.656 209.026 37.656C209.986 37.656 210.466 38.16 210.466 39.168C210.466 41.04 208.618 43.248 204.922 45.792C205.882 46.56 207.25 46.944 209.026 46.944C211.33 46.944 213.802 46.608 216.442 45.936C219.082 45.264 220.69 44.928 221.266 44.928C221.842 44.928 222.13 45.432 222.13 46.44C222.13 46.776 220.21 47.424 216.37 48.384C212.386 49.344 209.41 49.824 207.442 49.824C205.618 49.824 203.242 48.984 200.314 47.304C197.914 48.6 195.538 49.896 193.186 51.192C190.354 52.584 187.882 53.28 185.77 53.28C184.666 53.28 183.682 52.848 182.818 51.984C182.146 51.312 181.81 50.712 181.81 50.184C181.81 48.6 182.626 46.776 184.258 44.712C184.594 44.328 186.322 42.456 189.442 39.096C190.93 37.512 192.658 36 194.626 34.56C198.226 31.92 200.098 30.528 200.242 30.384C203.41 27.696 206.578 25.032 209.746 22.392C214.93 18.072 219.49 14.616 223.426 12.024C230.338 7.464 234.394 4.8 235.594 4.032C240.058 1.344 243.106 0 244.738 0C245.554 0 246.274 0.383999 246.898 1.152C247.57 1.872 247.906 2.688 247.906 3.6ZM244.594 3.6C244.594 3.216 244.45 3.024 244.162 3.024C242.194 3.024 235.834 6.864 225.082 14.544C222.73 16.224 218.074 20.016 211.114 25.92C215.146 24.384 217.954 23.256 219.538 22.536C222.898 21.048 225.97 19.392 228.754 17.568C232.21 15.312 235.714 12.624 239.266 9.504C242.818 6.384 244.594 4.416 244.594 3.6Z" fill="#943851"/>
<path d="M188.412 41.9759C188.412 42.7439 187.236 43.4159 184.884 43.9919C182.58 44.5199 180.156 44.7839 177.612 44.7839C175.932 44.7839 174.228 44.4239 172.5 43.7039C168.9 47.3039 166.452 49.5839 165.156 50.5439C162.324 52.7039 159.516 53.7839 156.732 53.7839C155.82 53.7839 155.028 53.3759 154.356 52.5599C153.684 51.7919 153.348 51.0719 153.348 50.3999C153.348 48.8159 154.092 46.8719 155.58 44.5679C157.068 42.2159 159.012 40.0079 161.412 37.9439C163.332 36.3119 165.684 34.9439 168.468 33.8399C170.676 32.9759 172.308 32.5439 173.364 32.5439C173.988 32.5439 174.684 32.9039 175.452 33.6239C176.22 34.3439 176.604 35.2079 176.604 36.2159C176.604 37.2239 176.004 38.9279 174.804 41.3279C175.476 41.6639 176.652 41.9999 178.332 42.3359C179.628 42.3359 181.356 42.1919 183.516 41.9039C185.676 41.5679 186.9 41.3999 187.188 41.3999C188.004 41.3999 188.412 41.5919 188.412 41.9759ZM168.756 42.9119C168.948 42.2399 168.948 41.4479 168.756 40.5359C168.516 39.3839 168.132 38.6399 167.604 38.3039C165.348 39.2639 163.476 40.4879 161.988 41.9759C158.58 45.4319 156.876 47.9999 156.876 49.6799C156.876 50.4479 157.14 50.8319 157.668 50.8319C159.924 50.8319 163.62 48.1919 168.756 42.9119Z" fill="#943851"/>
<path d="M159.061 42.696C159.061 43.464 154.549 45.336 145.525 48.312C137.701 50.904 132.445 52.2 129.757 52.2C126.589 52.2 125.005 50.808 125.005 48.024C125.005 45.48 128.053 42.192 134.149 38.16C138.037 35.568 140.773 34.272 142.357 34.272C143.174 34.272 143.869 34.536 144.445 35.064C145.021 35.544 145.309 36.168 145.309 36.936C145.309 37.224 145.021 37.8 144.445 38.664C143.725 39.672 143.077 40.272 142.501 40.464C141.877 40.656 141.061 39.984 140.053 38.448C138.853 39.024 137.149 39.984 134.941 41.328C130.765 44.496 128.677 46.728 128.677 48.024C128.677 48.312 128.846 48.6 129.182 48.888C129.566 49.128 129.925 49.248 130.261 49.248C132.181 49.248 137.054 48 144.878 45.504C152.99 42.912 157.069 41.616 157.117 41.616C158.413 41.616 159.061 41.976 159.061 42.696Z" fill="#943851"/>
<path d="M109.156 44.928C109.156 45.6 106.18 47.28 100.228 49.968C94.3245 52.608 90.1005 53.928 87.5565 53.928C86.7885 53.928 85.9485 53.688 85.0365 53.208C84.1725 52.728 83.7405 52.176 83.7405 51.552C83.7405 50.448 84.2205 49.008 85.1805 47.232C81.3405 48.72 78.4125 49.44 76.3965 49.392C73.5645 49.344 71.1405 48.72 69.1245 47.52C65.3805 50.688 62.0445 52.272 59.1165 52.272C57.6285 52.272 56.8845 51.504 56.8845 49.968C56.8845 48.72 58.6125 46.248 62.0685 42.552C65.0445 39.432 68.5245 36.168 72.5085 32.76C75.2925 30.36 78.3645 27.984 81.7245 25.632C85.1325 23.232 87.1965 22.032 87.9165 22.032C88.8285 22.032 89.2845 22.512 89.2845 23.472C89.2845 23.808 88.3485 24.6 86.4765 25.848C83.4525 27.96 81.8685 29.064 81.7245 29.16C77.0685 32.664 73.6125 35.4 71.3565 37.368C73.4205 37.368 74.7645 37.464 75.3885 37.656C76.4445 37.992 76.9725 38.568 76.9725 39.384C76.9725 40.92 75.4845 43.008 72.5085 45.648C74.1405 46.512 75.6285 46.944 76.9725 46.944C79.3245 46.944 82.6605 45.936 86.9805 43.92C88.7085 43.104 90.8925 41.952 93.5325 40.464C95.3085 39.408 96.4365 38.88 96.9165 38.88C98.2605 38.88 98.9325 39.288 98.9325 40.104C98.9325 40.632 98.2845 41.28 96.9885 42.048C93.8205 43.968 92.2125 44.928 92.1645 44.928C91.2525 45.552 90.0765 46.584 88.6365 48.024C87.1965 49.416 86.4765 50.256 86.4765 50.544C86.4765 51.408 86.9565 51.84 87.9165 51.84C88.4925 51.84 89.8845 51.48 92.0925 50.76C94.5885 49.992 96.8685 49.128 98.9325 48.168C104.98 45.384 108.1 43.992 108.292 43.992C108.868 44.04 109.156 44.352 109.156 44.928ZM70.7085 41.472C70.7565 41.136 70.5405 40.824 70.0605 40.536C69.4365 40.248 67.6845 41.28 64.8045 43.632C61.9245 45.936 60.4845 47.592 60.4845 48.6C60.4845 49.128 60.8205 49.392 61.4925 49.392C62.0205 49.392 63.2205 48.888 65.0925 47.88C67.0125 46.824 68.3565 45.84 69.1245 44.928C69.6525 44.064 70.1805 42.912 70.7085 41.472Z" fill="#943851"/>
<path d="M61.704 43.632C61.704 44.304 59.112 45.792 53.928 48.096C47.592 50.928 43.08 52.344 40.392 52.344C38.616 52.344 37.128 52.056 35.928 51.48C34.728 50.856 34.152 50.16 34.2 49.392C34.248 48.864 34.488 48.216 34.92 47.448C35.4 46.68 35.832 45.96 36.216 45.288C34.008 46.392 31.248 47.616 27.936 48.96C24.624 50.256 22.656 50.904 22.032 50.904C20.496 50.904 19.728 50.52 19.728 49.752C19.728 49.128 20.184 48.168 21.096 46.872C18.168 48.648 15.48 49.992 13.032 50.904C8.664 52.488 5.448 53.28 3.384 53.28C1.128 53.28 0 52.104 0 49.752C0 48.408 0.6 46.752 1.8 44.784C3 42.816 3.912 41.832 4.536 41.832C5.736 41.832 6.336 42.336 6.336 43.344C6.336 44.304 6 45.336 5.328 46.44C4.656 47.544 4.32 48.288 4.32 48.672C4.368 49.392 5.064 49.752 6.408 49.752C7.176 49.752 8.904 49.272 11.592 48.312C14.328 47.352 16.728 46.344 18.792 45.288C23.688 42.792 28.248 39.696 32.472 36C36.264 32.688 38.52 31.032 39.24 31.032C40.008 31.032 40.392 31.608 40.392 32.76C40.392 33.24 39.792 34.032 38.592 35.136C37.68 35.904 36.768 36.672 35.856 37.44C33.648 39.504 30.24 42.552 25.632 46.584C30.096 45.336 35.448 42.768 41.688 38.88C43.032 38.016 44.352 37.152 45.648 36.288C47.52 35.088 48.768 34.488 49.392 34.488C50.208 34.488 50.616 34.992 50.616 36C50.616 36.912 48.408 38.952 43.992 42.12C42.84 42.936 41.472 44.136 39.888 45.72C38.304 47.256 37.512 48.216 37.512 48.6C37.512 49.368 38.472 49.752 40.392 49.752C43.32 49.752 47.304 48.6 52.344 46.296C52.776 46.104 54.36 45.312 57.096 43.92C59.016 42.96 60.12 42.48 60.408 42.48C61.272 42.48 61.704 42.864 61.704 43.632Z" fill="#943851"/>
</svg>
