<svg width="316" height="27" viewBox="0 0 316 27" fill="none" xmlns="http://www.w3.org/2000/svg">
<path d="M314.201 8.20795C314.201 8.39995 313.661 8.87995 312.581 9.64795C311.045 10.6799 310.073 11.3759 309.665 11.7359C309.257 12.0719 308.441 12.8399 307.217 14.0399C306.353 14.8799 305.837 15.2999 305.669 15.2999C305.045 15.2999 304.733 15.0959 304.733 14.6879C304.733 14.1599 306.089 12.8159 308.801 10.6559C311.369 8.61595 313.001 7.59595 313.697 7.59595C314.033 7.59595 314.201 7.79995 314.201 8.20795ZM315.713 22.5359C315.713 22.9679 314.537 23.6039 312.185 24.4439C310.289 25.1159 308.873 25.4519 307.937 25.4519C306.881 25.4519 306.041 25.2719 305.417 24.9119C305.201 24.8159 304.781 24.4799 304.157 23.9039C302.645 24.6719 301.553 25.1399 300.881 25.3079C299.849 25.5959 298.397 25.7399 296.525 25.7399C295.901 25.7399 295.349 25.5359 294.869 25.1279C294.413 24.7199 294.185 24.2159 294.185 23.6159C294.185 23.0639 295.145 21.9479 297.065 20.2679C298.937 18.6599 300.209 17.7839 300.881 17.6399C301.193 17.5679 301.349 17.7959 301.349 18.3239C301.349 18.5399 300.497 19.3799 298.793 20.8439C297.089 22.2839 296.237 23.2079 296.237 23.6159C296.237 24.0479 296.681 24.2639 297.569 24.2639C299.945 24.2639 302.345 23.4479 304.769 21.8159C305.249 21.5039 306.233 20.7479 307.721 19.5479C308.753 18.7319 309.401 18.3239 309.665 18.3239C310.025 18.3239 310.205 18.5759 310.205 19.0799C310.205 19.7999 309.881 20.4479 309.233 21.0239C308.993 21.2399 308.405 21.6479 307.469 22.2479C306.821 22.6559 306.497 22.9919 306.497 23.2559C306.497 23.9279 307.061 24.2639 308.189 24.2639C308.717 24.2639 309.857 23.9999 311.609 23.4719C311.993 23.3519 312.701 23.0879 313.733 22.6799C314.549 22.3439 315.053 22.1759 315.245 22.1759C315.557 22.1759 315.713 22.2959 315.713 22.5359Z" fill="#943851"/>
<path d="M297.198 20.988C297.198 21.372 296.61 21.708 295.434 21.996C294.282 22.26 293.07 22.392 291.798 22.392C290.958 22.392 290.106 22.212 289.242 21.852C287.442 23.652 286.218 24.792 285.57 25.272C284.154 26.352 282.75 26.892 281.358 26.892C280.902 26.892 280.506 26.688 280.17 26.28C279.834 25.896 279.666 25.536 279.666 25.2C279.666 24.408 280.038 23.436 280.782 22.284C281.526 21.108 282.498 20.004 283.698 18.972C284.658 18.156 285.834 17.472 287.226 16.92C288.33 16.488 289.146 16.272 289.674 16.272C289.986 16.272 290.334 16.452 290.718 16.812C291.102 17.172 291.294 17.604 291.294 18.108C291.294 18.612 290.994 19.464 290.394 20.664C290.73 20.832 291.318 21 292.158 21.168C292.806 21.168 293.67 21.096 294.75 20.952C295.83 20.784 296.442 20.7 296.586 20.7C296.994 20.7 297.198 20.796 297.198 20.988ZM287.37 21.456C287.466 21.12 287.466 20.724 287.37 20.268C287.25 19.692 287.058 19.32 286.794 19.152C285.666 19.632 284.73 20.244 283.986 20.988C282.282 22.716 281.43 24 281.43 24.84C281.43 25.224 281.562 25.416 281.826 25.416C282.954 25.416 284.802 24.096 287.37 21.456Z" fill="#943851"/>
<path d="M309.191 1.51198C309.191 2.08798 308.675 2.65198 307.643 3.20398C306.731 3.68398 305.711 4.03198 304.583 4.24798C302.999 4.53598 301.247 4.81198 299.327 5.07598C296.015 5.48398 294.227 5.71198 293.963 5.75998C292.787 5.92798 290.903 6.19198 288.311 6.55198C287.615 7.36798 286.727 8.54398 285.647 10.08C284.351 11.952 283.283 13.428 282.443 14.508C279.731 18.036 276.671 21.216 273.263 24.048C271.319 25.68 269.555 26.496 267.971 26.496C267.347 26.496 266.855 26.304 266.495 25.92C266.135 25.536 265.967 25.08 265.991 24.552C266.015 23.712 267.023 22.344 269.015 20.448C269.879 19.632 270.839 18.888 271.895 18.216C272.951 17.544 273.707 17.208 274.163 17.208C275.411 17.208 276.035 18 276.035 19.584C277.211 18.312 278.951 16.248 281.255 13.392C282.575 11.496 283.883 9.58798 285.179 7.66798C286.451 5.89198 287.315 5.00398 287.771 5.00398C288.251 5.00398 290.411 4.75198 294.251 4.24798C295.739 4.10398 297.863 3.81598 300.623 3.38398C300.431 3.31198 300.215 3.14398 299.975 2.87998C299.951 2.78398 300.011 2.65198 300.155 2.48398C300.299 2.31598 300.455 2.23198 300.623 2.23198C302.831 2.23198 304.151 2.18398 304.583 2.08798C305.135 1.96798 305.831 1.76398 306.671 1.47598C307.295 1.28398 307.739 1.18798 308.003 1.18798C308.987 1.18798 309.263 1.17598 308.831 1.15198C309.071 1.15198 309.191 1.27198 309.191 1.51198ZM274.523 20.808C274.523 20.088 274.295 19.68 273.839 19.584C273.263 19.464 272.171 20.04 270.563 21.312C268.955 22.584 268.151 23.496 268.151 24.048C268.151 24.576 268.307 24.84 268.619 24.84C269.651 24.84 271.619 23.496 274.523 20.808Z" fill="#943851"/>
<path d="M268.968 20.988C268.968 21.372 268.38 21.708 267.204 21.996C266.052 22.26 264.84 22.392 263.568 22.392C262.728 22.392 261.876 22.212 261.012 21.852C259.212 23.652 257.988 24.792 257.34 25.272C255.924 26.352 254.52 26.892 253.128 26.892C252.672 26.892 252.276 26.688 251.94 26.28C251.604 25.896 251.436 25.536 251.436 25.2C251.436 24.408 251.808 23.436 252.552 22.284C253.296 21.108 254.268 20.004 255.468 18.972C256.428 18.156 257.604 17.472 258.996 16.92C260.1 16.488 260.916 16.272 261.444 16.272C261.756 16.272 262.104 16.452 262.488 16.812C262.872 17.172 263.064 17.604 263.064 18.108C263.064 18.612 262.764 19.464 262.164 20.664C262.5 20.832 263.088 21 263.928 21.168C264.576 21.168 265.44 21.096 266.52 20.952C267.6 20.784 268.212 20.7 268.356 20.7C268.764 20.7 268.968 20.796 268.968 20.988ZM259.14 21.456C259.236 21.12 259.236 20.724 259.14 20.268C259.02 19.692 258.828 19.32 258.564 19.152C257.436 19.632 256.5 20.244 255.756 20.988C254.052 22.716 253.2 24 253.2 24.84C253.2 25.224 253.332 25.416 253.596 25.416C254.724 25.416 256.572 24.096 259.14 21.456Z" fill="#943851"/>
<path d="M253.834 22.572C253.834 22.764 253.426 23.088 252.61 23.544C251.818 24 250.99 24.372 250.126 24.66C247.222 25.644 244.942 26.136 243.286 26.136C242.71 26.136 242.218 25.992 241.81 25.704C241.402 25.392 241.198 24.984 241.198 24.48C241.198 24.216 241.558 23.676 242.278 22.86C242.902 22.212 243.514 21.552 244.114 20.88C242.53 21.12 240.682 21.744 238.57 22.752C235.282 24.312 233.494 25.092 233.206 25.092C232.654 25.092 232.378 24.792 232.378 24.192C232.378 23.856 232.858 23.256 233.818 22.392C234.802 21.528 235.294 20.952 235.294 20.664C235.294 20.4 235.186 20.268 234.97 20.268C234.178 20.268 231.634 21.24 227.338 23.184C227.098 23.28 225.97 23.856 223.954 24.912C222.61 25.608 221.758 25.956 221.398 25.956C220.942 25.956 220.714 25.668 220.714 25.092C220.714 24.588 222.094 23.268 224.854 21.132C227.614 18.996 229.366 17.928 230.11 17.928C230.47 17.928 230.65 18.084 230.65 18.396C230.65 18.564 230.146 19.044 229.138 19.836C227.962 20.748 227.254 21.36 227.014 21.672C227.038 21.672 228.07 21.336 230.11 20.664C230.494 20.544 231.718 20.088 233.782 19.296C235.15 18.792 236.026 18.54 236.41 18.54C237.034 18.54 237.526 18.708 237.886 19.044C238.27 19.38 238.426 19.788 238.354 20.268C238.258 20.988 238.078 21.54 237.814 21.924C238.798 21.468 240.406 20.808 242.638 19.944C244.942 19.2 246.478 18.828 247.246 18.828C247.75 18.828 248.002 19.104 248.002 19.656C248.002 19.872 247.606 20.232 246.814 20.736C245.782 21.384 245.098 21.888 244.762 22.248C243.61 23.472 243.034 24.216 243.034 24.48C243.034 24.792 243.394 24.948 244.114 24.948C245.194 24.948 246.934 24.576 249.334 23.832C249.934 23.64 250.774 23.316 251.854 22.86C252.79 22.452 253.294 22.248 253.366 22.248C253.678 22.248 253.834 22.356 253.834 22.572Z" fill="#943851"/>
<path d="M214.074 21.348C214.074 21.732 211.818 22.668 207.306 24.156C203.394 25.452 200.766 26.1 199.422 26.1C197.838 26.1 197.046 25.404 197.046 24.012C197.046 22.74 198.57 21.096 201.618 19.08C203.562 17.784 204.93 17.136 205.722 17.136C206.13 17.136 206.478 17.268 206.766 17.532C207.054 17.772 207.198 18.084 207.198 18.468C207.198 18.612 207.054 18.9 206.766 19.332C206.406 19.836 206.082 20.136 205.794 20.232C205.482 20.328 205.074 19.992 204.57 19.224C203.97 19.512 203.118 19.992 202.014 20.664C199.926 22.248 198.882 23.364 198.882 24.012C198.882 24.156 198.966 24.3 199.134 24.444C199.326 24.564 199.506 24.624 199.674 24.624C200.634 24.624 203.07 24 206.982 22.752C211.038 21.456 213.078 20.808 213.102 20.808C213.75 20.808 214.074 20.988 214.074 21.348Z" fill="#943851"/>
<path d="M188.834 22.536C188.834 22.968 187.658 23.604 185.306 24.444C183.41 25.116 181.994 25.452 181.058 25.452C180.002 25.452 179.162 25.272 178.538 24.912C178.322 24.816 177.902 24.48 177.278 23.904C175.766 24.672 174.674 25.14 174.002 25.308C172.97 25.596 171.518 25.74 169.646 25.74C169.022 25.74 168.47 25.536 167.99 25.128C167.534 24.72 167.306 24.216 167.306 23.616C167.306 23.064 168.266 21.948 170.186 20.268C172.058 18.66 173.33 17.784 174.002 17.64C174.314 17.568 174.47 17.796 174.47 18.324C174.47 18.54 173.618 19.38 171.914 20.844C170.21 22.284 169.358 23.208 169.358 23.616C169.358 24.048 169.802 24.264 170.69 24.264C173.066 24.264 175.466 23.448 177.89 21.816C178.37 21.504 179.354 20.748 180.842 19.548C181.874 18.732 182.522 18.324 182.786 18.324C183.146 18.324 183.326 18.576 183.326 19.08C183.326 19.8 183.002 20.448 182.354 21.024C182.114 21.24 181.526 21.648 180.59 22.248C179.942 22.656 179.618 22.992 179.618 23.256C179.618 23.928 180.182 24.264 181.31 24.264C181.838 24.264 182.978 24 184.73 23.472C185.114 23.352 185.822 23.088 186.854 22.68C187.67 22.344 188.174 22.176 188.366 22.176C188.678 22.176 188.834 22.296 188.834 22.536Z" fill="#943851"/>
<path d="M169.842 23.04C169.866 23.544 168.714 24.24 166.386 25.128C164.058 26.016 162.33 26.46 161.202 26.46C160.554 26.46 159.966 26.148 159.438 25.524C158.91 24.876 158.67 24.216 158.718 23.544C158.766 22.56 159.03 21.54 159.51 20.484C158.358 21.588 156.39 22.8 153.606 24.12C150.966 25.368 149.358 25.968 148.782 25.92C147.654 25.848 147.09 25.272 147.09 24.192C147.09 23.376 147.27 22.656 147.63 22.032C148.086 21.288 148.662 20.988 149.358 21.132C149.814 21.228 149.946 21.492 149.754 21.924C149.61 22.212 149.43 22.68 149.214 23.328C149.142 23.712 149.37 23.916 149.898 23.94C150.522 23.964 153.282 22.56 158.178 19.728C159.162 19.128 160.146 18.528 161.13 17.928C162.33 17.232 163.278 16.848 163.974 16.776C164.07 16.776 164.154 16.836 164.226 16.956C164.298 17.076 164.322 17.184 164.298 17.28C163.818 17.76 163.038 18.624 161.958 19.872C161.022 21.096 160.53 22.224 160.482 23.256C160.458 23.664 160.554 24.036 160.77 24.372C160.986 24.78 161.298 24.996 161.706 25.02C162.09 25.044 163.422 24.66 165.702 23.868C168.006 23.052 169.254 22.656 169.446 22.68C169.71 22.704 169.842 22.824 169.842 23.04Z" fill="#943851"/>
<path d="M150.777 21.456C150.777 21.84 149.301 22.68 146.349 23.976C144.237 24.912 142.197 25.38 140.229 25.38C139.629 25.38 139.161 25.152 138.825 24.696C138.609 24.288 138.393 23.88 138.177 23.472C135.657 25.224 133.305 26.1 131.121 26.1C130.329 26.1 129.705 25.896 129.249 25.488C128.793 25.08 128.565 24.576 128.565 23.976C128.565 22.632 129.453 21.396 131.229 20.268C133.197 19.044 135.657 18.432 138.609 18.432C139.737 18.432 140.589 18.816 141.165 19.584C141.597 19.296 142.077 19.152 142.605 19.152C142.989 19.152 143.181 19.5 143.181 20.196C143.181 20.364 142.749 20.784 141.885 21.456C141.021 22.104 140.589 22.632 140.589 23.04C140.589 23.664 140.781 23.976 141.165 23.976C142.797 23.976 144.369 23.616 145.881 22.896C148.449 21.672 149.901 21.06 150.237 21.06C150.597 21.06 150.777 21.192 150.777 21.456ZM138.609 20.556C138.657 20.316 138.393 20.196 137.817 20.196C136.665 20.196 135.237 20.568 133.533 21.312C131.589 22.176 130.617 23.064 130.617 23.976C130.617 24.336 130.785 24.54 131.121 24.588C131.985 24.732 133.341 24.396 135.189 23.58C137.229 22.668 138.369 21.66 138.609 20.556Z" fill="#943851"/>
<path d="M130.904 21.6C130.904 22.008 129.512 22.764 126.728 23.868C124.376 24.804 122.24 25.272 120.32 25.272C119.912 25.272 119.708 25.068 119.708 24.66C119.708 24.348 119.9 23.904 120.284 23.328C120.716 22.656 121.148 21.996 121.58 21.348C120.116 21.684 117.704 22.476 114.344 23.724C113.792 23.94 112.712 24.456 111.104 25.272C109.904 25.896 109.064 26.208 108.584 26.208C108.104 26.208 107.864 25.98 107.864 25.524C107.864 25.164 108.284 24.612 109.124 23.868C109.94 23.22 110.756 22.56 111.572 21.888C113.228 20.496 114.164 19.716 114.38 19.548C115.388 18.78 116.144 18.396 116.648 18.396C117.176 18.396 117.44 18.672 117.44 19.224C117.44 19.392 117.068 19.788 116.324 20.412C115.436 21.156 114.836 21.768 114.524 22.248C115.196 22.08 117.068 21.456 120.14 20.376C122.804 19.416 124.364 18.936 124.82 18.936C125.42 18.936 125.72 19.128 125.72 19.512C125.72 19.752 125.132 20.436 123.956 21.564C122.78 22.692 122.192 23.304 122.192 23.4C122.192 23.616 122.396 23.724 122.804 23.724C123.212 23.724 124.52 23.352 126.728 22.608C127.112 22.464 127.832 22.164 128.888 21.708C129.656 21.348 130.172 21.168 130.436 21.168C130.748 21.168 130.904 21.312 130.904 21.6Z" fill="#943851"/>
<path d="M123.953 1.8C123.953 2.28 123.161 3.276 121.577 4.788C119.777 6.492 117.653 8.16 115.205 9.792C113.621 10.848 111.209 12.096 107.969 13.536C103.409 15.552 100.925 16.704 100.517 16.992C100.133 17.28 99.5328 17.712 98.7168 18.288C97.7088 19.08 96.8448 19.86 96.1248 20.628C94.0128 22.908 92.9568 24.312 92.9568 24.84C92.9568 25.2 93.1248 25.38 93.4608 25.38C94.0608 25.38 95.0088 25.008 96.3048 24.264C97.4328 23.568 98.5728 22.872 99.7248 22.176C100.061 21.768 100.661 21.216 101.525 20.52C102.893 19.392 103.889 18.828 104.513 18.828C104.993 18.828 105.233 19.08 105.233 19.584C105.233 20.52 104.309 21.624 102.461 22.896C102.941 23.28 103.625 23.472 104.513 23.472C105.665 23.472 106.901 23.304 108.221 22.968C109.541 22.632 110.345 22.464 110.633 22.464C110.921 22.464 111.065 22.716 111.065 23.22C111.065 23.388 110.105 23.712 108.185 24.192C106.193 24.672 104.705 24.912 103.721 24.912C102.809 24.912 101.621 24.492 100.157 23.652C98.9568 24.3 97.7688 24.948 96.5928 25.596C95.1768 26.292 93.9408 26.64 92.8848 26.64C92.3328 26.64 91.8408 26.424 91.4088 25.992C91.0728 25.656 90.9048 25.356 90.9048 25.092C90.9048 24.3 91.3128 23.388 92.1288 22.356C92.2968 22.164 93.1608 21.228 94.7208 19.548C95.4648 18.756 96.3288 18 97.3128 17.28C99.1128 15.96 100.049 15.264 100.121 15.192C101.705 13.848 103.289 12.516 104.873 11.196C107.465 9.036 109.745 7.308 111.713 6.012C115.169 3.732 117.197 2.4 117.797 2.016C120.029 0.672 121.553 0 122.369 0C122.777 0 123.137 0.192 123.449 0.575999C123.785 0.935999 123.953 1.344 123.953 1.8ZM122.297 1.8C122.297 1.608 122.225 1.512 122.081 1.512C121.097 1.512 117.917 3.432 112.541 7.272C111.365 8.112 109.037 10.008 105.557 12.96C107.573 12.192 108.977 11.628 109.769 11.268C111.449 10.524 112.985 9.696 114.377 8.784C116.105 7.656 117.857 6.312 119.633 4.752C121.409 3.192 122.297 2.208 122.297 1.8Z" fill="#943851"/>
<path d="M94.2061 20.988C94.2061 21.372 93.6181 21.708 92.4421 21.996C91.2901 22.26 90.0781 22.392 88.8061 22.392C87.9661 22.392 87.1141 22.212 86.2501 21.852C84.4501 23.652 83.2261 24.792 82.5781 25.272C81.1621 26.352 79.7581 26.892 78.3661 26.892C77.9101 26.892 77.5141 26.688 77.1781 26.28C76.8421 25.896 76.6741 25.536 76.6741 25.2C76.6741 24.408 77.0461 23.436 77.7901 22.284C78.5341 21.108 79.5061 20.004 80.7061 18.972C81.6661 18.156 82.8421 17.472 84.2341 16.92C85.3381 16.488 86.1541 16.272 86.6821 16.272C86.9941 16.272 87.3421 16.452 87.7261 16.812C88.1101 17.172 88.3021 17.604 88.3021 18.108C88.3021 18.612 88.0021 19.464 87.4021 20.664C87.7381 20.832 88.3261 21 89.1661 21.168C89.8141 21.168 90.6781 21.096 91.7581 20.952C92.8381 20.784 93.4501 20.7 93.5941 20.7C94.0021 20.7 94.2061 20.796 94.2061 20.988ZM84.3781 21.456C84.4741 21.12 84.4741 20.724 84.3781 20.268C84.2581 19.692 84.0661 19.32 83.8021 19.152C82.6741 19.632 81.7381 20.244 80.9941 20.988C79.2901 22.716 78.4381 24 78.4381 24.84C78.4381 25.224 78.5701 25.416 78.8341 25.416C79.9621 25.416 81.8101 24.096 84.3781 21.456Z" fill="#943851"/>
<path d="M79.5309 21.348C79.5309 21.732 77.2749 22.668 72.7629 24.156C68.8509 25.452 66.2229 26.1 64.8789 26.1C63.2949 26.1 62.5029 25.404 62.5029 24.012C62.5029 22.74 64.0269 21.096 67.0749 19.08C69.0189 17.784 70.3869 17.136 71.1789 17.136C71.5869 17.136 71.9349 17.268 72.2229 17.532C72.5109 17.772 72.6549 18.084 72.6549 18.468C72.6549 18.612 72.5109 18.9 72.2229 19.332C71.8629 19.836 71.5389 20.136 71.2509 20.232C70.9389 20.328 70.5309 19.992 70.0269 19.224C69.4269 19.512 68.5749 19.992 67.4709 20.664C65.3829 22.248 64.3389 23.364 64.3389 24.012C64.3389 24.156 64.4229 24.3 64.5909 24.444C64.7829 24.564 64.9629 24.624 65.1309 24.624C66.0909 24.624 68.5269 24 72.4389 22.752C76.4949 21.456 78.5349 20.808 78.5589 20.808C79.2069 20.808 79.5309 20.988 79.5309 21.348Z" fill="#943851"/>
<path d="M54.5784 22.464C54.5784 22.8 53.0904 23.64 50.1144 24.984C47.1624 26.304 45.0504 26.964 43.7784 26.964C43.3944 26.964 42.9744 26.844 42.5184 26.604C42.0864 26.364 41.8704 26.088 41.8704 25.776C41.8704 25.224 42.1104 24.504 42.5904 23.616C40.6704 24.36 39.2064 24.72 38.1984 24.696C36.7824 24.672 35.5704 24.36 34.5624 23.76C32.6904 25.344 31.0224 26.136 29.5584 26.136C28.8144 26.136 28.4424 25.752 28.4424 24.984C28.4424 24.36 29.3064 23.124 31.0344 21.276C32.5224 19.716 34.2624 18.084 36.2544 16.38C37.6464 15.18 39.1824 13.992 40.8624 12.816C42.5664 11.616 43.5984 11.016 43.9584 11.016C44.4144 11.016 44.6424 11.256 44.6424 11.736C44.6424 11.904 44.1744 12.3 43.2384 12.924C41.7264 13.98 40.9344 14.532 40.8624 14.58C38.5344 16.332 36.8064 17.7 35.6784 18.684C36.7104 18.684 37.3824 18.732 37.6944 18.828C38.2224 18.996 38.4864 19.284 38.4864 19.692C38.4864 20.46 37.7424 21.504 36.2544 22.824C37.0704 23.256 37.8144 23.472 38.4864 23.472C39.6624 23.472 41.3304 22.968 43.4904 21.96C44.3544 21.552 45.4464 20.976 46.7664 20.232C47.6544 19.704 48.2184 19.44 48.4584 19.44C49.1304 19.44 49.4664 19.644 49.4664 20.052C49.4664 20.316 49.1424 20.64 48.4944 21.024C46.9104 21.984 46.1064 22.464 46.0824 22.464C45.6264 22.776 45.0384 23.292 44.3184 24.012C43.5984 24.708 43.2384 25.128 43.2384 25.272C43.2384 25.704 43.4784 25.92 43.9584 25.92C44.2464 25.92 44.9424 25.74 46.0464 25.38C47.2944 24.996 48.4344 24.564 49.4664 24.084C52.4904 22.692 54.0504 21.996 54.1464 21.996C54.4344 22.02 54.5784 22.176 54.5784 22.464ZM35.3544 20.736C35.3784 20.568 35.2704 20.412 35.0304 20.268C34.7184 20.124 33.8424 20.64 32.4024 21.816C30.9624 22.968 30.2424 23.796 30.2424 24.3C30.2424 24.564 30.4104 24.696 30.7464 24.696C31.0104 24.696 31.6104 24.444 32.5464 23.94C33.5064 23.412 34.1784 22.92 34.5624 22.464C34.8264 22.032 35.0904 21.456 35.3544 20.736Z" fill="#943851"/>
<path d="M30.852 21.816C30.852 22.152 29.556 22.896 26.964 24.048C23.796 25.464 21.54 26.172 20.196 26.172C19.308 26.172 18.564 26.028 17.964 25.74C17.364 25.428 17.076 25.08 17.1 24.696C17.124 24.432 17.244 24.108 17.46 23.724C17.7 23.34 17.916 22.98 18.108 22.644C17.004 23.196 15.624 23.808 13.968 24.48C12.312 25.128 11.328 25.452 11.016 25.452C10.248 25.452 9.864 25.26 9.864 24.876C9.864 24.564 10.092 24.084 10.548 23.436C9.084 24.324 7.74 24.996 6.516 25.452C4.332 26.244 2.724 26.64 1.692 26.64C0.564 26.64 0 26.052 0 24.876C0 24.204 0.3 23.376 0.9 22.392C1.5 21.408 1.956 20.916 2.268 20.916C2.868 20.916 3.168 21.168 3.168 21.672C3.168 22.152 3 22.668 2.664 23.22C2.328 23.772 2.16 24.144 2.16 24.336C2.184 24.696 2.532 24.876 3.204 24.876C3.588 24.876 4.452 24.636 5.796 24.156C7.164 23.676 8.364 23.172 9.396 22.644C11.844 21.396 14.124 19.848 16.236 18C18.132 16.344 19.26 15.516 19.62 15.516C20.004 15.516 20.196 15.804 20.196 16.38C20.196 16.62 19.896 17.016 19.296 17.568C18.84 17.952 18.384 18.336 17.928 18.72C16.824 19.752 15.12 21.276 12.816 23.292C15.048 22.668 17.724 21.384 20.844 19.44C21.516 19.008 22.176 18.576 22.824 18.144C23.76 17.544 24.384 17.244 24.696 17.244C25.104 17.244 25.308 17.496 25.308 18C25.308 18.456 24.204 19.476 21.996 21.06C21.42 21.468 20.736 22.068 19.944 22.86C19.152 23.628 18.756 24.108 18.756 24.3C18.756 24.684 19.236 24.876 20.196 24.876C21.66 24.876 23.652 24.3 26.172 23.148C26.388 23.052 27.18 22.656 28.548 21.96C29.508 21.48 30.06 21.24 30.204 21.24C30.636 21.24 30.852 21.432 30.852 21.816Z" fill="#943851"/>
</svg>
